%TF.GenerationSoftware,KiCad,Pcbnew,9.0.3*%
%TF.CreationDate,2025-08-16T09:01:18+02:00*%
%TF.ProjectId,PicoCalcPiZero,5069636f-4361-46c6-9350-695a65726f2e,rev?*%
%TF.SameCoordinates,Original*%
%TF.FileFunction,Profile,NP*%
%FSLAX46Y46*%
G04 Gerber Fmt 4.6, Leading zero omitted, Abs format (unit mm)*
G04 Created by KiCad (PCBNEW 9.0.3) date 2025-08-16 09:01:18*
%MOMM*%
%LPD*%
G01*
G04 APERTURE LIST*
%TA.AperFunction,Profile*%
%ADD10C,0.050000*%
%TD*%
%ADD11C,0.150000*%
G04 APERTURE END LIST*
D10*
X124000000Y-64000000D02*
X124000000Y-116500000D01*
X124000000Y-116500000D02*
X105000000Y-116500000D01*
X99500000Y-129500000D02*
X92000000Y-129500000D01*
X100500000Y-64000000D02*
X124000000Y-64000000D01*
X92000000Y-129500000D02*
X92000000Y-76500000D01*
X99500000Y-122500000D02*
X99500000Y-129500000D01*
X105000000Y-116500000D02*
X99500000Y-122500000D01*
X92000000Y-76500000D02*
X100500000Y-76500000D01*
X100500000Y-76500000D02*
X100500000Y-64000000D01*
D11*
X147804819Y-98249999D02*
X147804819Y-98440475D01*
X147804819Y-98440475D02*
X147852438Y-98535713D01*
X147852438Y-98535713D02*
X147900057Y-98583332D01*
X147900057Y-98583332D02*
X148042914Y-98678570D01*
X148042914Y-98678570D02*
X148233390Y-98726189D01*
X148233390Y-98726189D02*
X148614342Y-98726189D01*
X148614342Y-98726189D02*
X148709580Y-98678570D01*
X148709580Y-98678570D02*
X148757200Y-98630951D01*
X148757200Y-98630951D02*
X148804819Y-98535713D01*
X148804819Y-98535713D02*
X148804819Y-98345237D01*
X148804819Y-98345237D02*
X148757200Y-98249999D01*
X148757200Y-98249999D02*
X148709580Y-98202380D01*
X148709580Y-98202380D02*
X148614342Y-98154761D01*
X148614342Y-98154761D02*
X148376247Y-98154761D01*
X148376247Y-98154761D02*
X148281009Y-98202380D01*
X148281009Y-98202380D02*
X148233390Y-98249999D01*
X148233390Y-98249999D02*
X148185771Y-98345237D01*
X148185771Y-98345237D02*
X148185771Y-98535713D01*
X148185771Y-98535713D02*
X148233390Y-98630951D01*
X148233390Y-98630951D02*
X148281009Y-98678570D01*
X148281009Y-98678570D02*
X148376247Y-98726189D01*
X147804819Y-97297618D02*
X147804819Y-97488094D01*
X147804819Y-97488094D02*
X147852438Y-97583332D01*
X147852438Y-97583332D02*
X147900057Y-97630951D01*
X147900057Y-97630951D02*
X148042914Y-97726189D01*
X148042914Y-97726189D02*
X148233390Y-97773808D01*
X148233390Y-97773808D02*
X148614342Y-97773808D01*
X148614342Y-97773808D02*
X148709580Y-97726189D01*
X148709580Y-97726189D02*
X148757200Y-97678570D01*
X148757200Y-97678570D02*
X148804819Y-97583332D01*
X148804819Y-97583332D02*
X148804819Y-97392856D01*
X148804819Y-97392856D02*
X148757200Y-97297618D01*
X148757200Y-97297618D02*
X148709580Y-97249999D01*
X148709580Y-97249999D02*
X148614342Y-97202380D01*
X148614342Y-97202380D02*
X148376247Y-97202380D01*
X148376247Y-97202380D02*
X148281009Y-97249999D01*
X148281009Y-97249999D02*
X148233390Y-97297618D01*
X148233390Y-97297618D02*
X148185771Y-97392856D01*
X148185771Y-97392856D02*
X148185771Y-97583332D01*
X148185771Y-97583332D02*
X148233390Y-97678570D01*
X148233390Y-97678570D02*
X148281009Y-97726189D01*
X148281009Y-97726189D02*
X148376247Y-97773808D01*
X148709580Y-96773808D02*
X148757200Y-96726189D01*
X148757200Y-96726189D02*
X148804819Y-96773808D01*
X148804819Y-96773808D02*
X148757200Y-96821427D01*
X148757200Y-96821427D02*
X148709580Y-96773808D01*
X148709580Y-96773808D02*
X148804819Y-96773808D01*
X147804819Y-95821428D02*
X147804819Y-96297618D01*
X147804819Y-96297618D02*
X148281009Y-96345237D01*
X148281009Y-96345237D02*
X148233390Y-96297618D01*
X148233390Y-96297618D02*
X148185771Y-96202380D01*
X148185771Y-96202380D02*
X148185771Y-95964285D01*
X148185771Y-95964285D02*
X148233390Y-95869047D01*
X148233390Y-95869047D02*
X148281009Y-95821428D01*
X148281009Y-95821428D02*
X148376247Y-95773809D01*
X148376247Y-95773809D02*
X148614342Y-95773809D01*
X148614342Y-95773809D02*
X148709580Y-95821428D01*
X148709580Y-95821428D02*
X148757200Y-95869047D01*
X148757200Y-95869047D02*
X148804819Y-95964285D01*
X148804819Y-95964285D02*
X148804819Y-96202380D01*
X148804819Y-96202380D02*
X148757200Y-96297618D01*
X148757200Y-96297618D02*
X148709580Y-96345237D01*
D10*
X124500000Y-64000000D02*
X150086420Y-64000000D01*
X150086420Y-130500000D02*
X124500000Y-130500000D01*
X149500000Y-64000000D02*
X149500000Y-130500000D01*
X149500000Y-64000000D02*
X150086421Y-65126504D01*
X149500000Y-64000000D02*
X148913579Y-65126504D01*
X149500000Y-130500000D02*
X148913579Y-129373496D01*
X149500000Y-130500000D02*
X150086421Y-129373496D01*
D11*
X107190476Y-51304819D02*
X107809523Y-51304819D01*
X107809523Y-51304819D02*
X107476190Y-51685771D01*
X107476190Y-51685771D02*
X107619047Y-51685771D01*
X107619047Y-51685771D02*
X107714285Y-51733390D01*
X107714285Y-51733390D02*
X107761904Y-51781009D01*
X107761904Y-51781009D02*
X107809523Y-51876247D01*
X107809523Y-51876247D02*
X107809523Y-52114342D01*
X107809523Y-52114342D02*
X107761904Y-52209580D01*
X107761904Y-52209580D02*
X107714285Y-52257200D01*
X107714285Y-52257200D02*
X107619047Y-52304819D01*
X107619047Y-52304819D02*
X107333333Y-52304819D01*
X107333333Y-52304819D02*
X107238095Y-52257200D01*
X107238095Y-52257200D02*
X107190476Y-52209580D01*
X108666666Y-51638152D02*
X108666666Y-52304819D01*
X108428571Y-51257200D02*
X108190476Y-51971485D01*
X108190476Y-51971485D02*
X108809523Y-51971485D01*
D10*
X91000000Y-60000000D02*
X91000000Y-52413580D01*
X125000000Y-52413580D02*
X125000000Y-60500000D01*
X91000000Y-53000000D02*
X125000000Y-53000000D01*
X91000000Y-53000000D02*
X92126504Y-52413579D01*
X91000000Y-53000000D02*
X92126504Y-53586421D01*
X125000000Y-53000000D02*
X123873496Y-53586421D01*
X125000000Y-53000000D02*
X123873496Y-52413579D01*
M02*
