%TF.GenerationSoftware,KiCad,Pcbnew,9.0.3*%
%TF.CreationDate,2025-08-16T09:01:18+02:00*%
%TF.ProjectId,PicoCalcPiZero,5069636f-4361-46c6-9350-695a65726f2e,rev?*%
%TF.SameCoordinates,Original*%
%TF.FileFunction,Legend,Top*%
%TF.FilePolarity,Positive*%
%FSLAX46Y46*%
G04 Gerber Fmt 4.6, Leading zero omitted, Abs format (unit mm)*
G04 Created by KiCad (PCBNEW 9.0.3) date 2025-08-16 09:01:18*
%MOMM*%
%LPD*%
G01*
G04 APERTURE LIST*
%ADD10C,0.150000*%
%ADD11C,0.120000*%
G04 APERTURE END LIST*
D10*
X107336779Y-110649931D02*
X107336779Y-109649931D01*
X107336779Y-110126121D02*
X107908207Y-110126121D01*
X107908207Y-110649931D02*
X107908207Y-109649931D01*
X108765350Y-110602312D02*
X108670112Y-110649931D01*
X108670112Y-110649931D02*
X108479636Y-110649931D01*
X108479636Y-110649931D02*
X108384398Y-110602312D01*
X108384398Y-110602312D02*
X108336779Y-110507073D01*
X108336779Y-110507073D02*
X108336779Y-110126121D01*
X108336779Y-110126121D02*
X108384398Y-110030883D01*
X108384398Y-110030883D02*
X108479636Y-109983264D01*
X108479636Y-109983264D02*
X108670112Y-109983264D01*
X108670112Y-109983264D02*
X108765350Y-110030883D01*
X108765350Y-110030883D02*
X108812969Y-110126121D01*
X108812969Y-110126121D02*
X108812969Y-110221359D01*
X108812969Y-110221359D02*
X108336779Y-110316597D01*
X109670112Y-110649931D02*
X109670112Y-110126121D01*
X109670112Y-110126121D02*
X109622493Y-110030883D01*
X109622493Y-110030883D02*
X109527255Y-109983264D01*
X109527255Y-109983264D02*
X109336779Y-109983264D01*
X109336779Y-109983264D02*
X109241541Y-110030883D01*
X109670112Y-110602312D02*
X109574874Y-110649931D01*
X109574874Y-110649931D02*
X109336779Y-110649931D01*
X109336779Y-110649931D02*
X109241541Y-110602312D01*
X109241541Y-110602312D02*
X109193922Y-110507073D01*
X109193922Y-110507073D02*
X109193922Y-110411835D01*
X109193922Y-110411835D02*
X109241541Y-110316597D01*
X109241541Y-110316597D02*
X109336779Y-110268978D01*
X109336779Y-110268978D02*
X109574874Y-110268978D01*
X109574874Y-110268978D02*
X109670112Y-110221359D01*
X110574874Y-110649931D02*
X110574874Y-109649931D01*
X110574874Y-110602312D02*
X110479636Y-110649931D01*
X110479636Y-110649931D02*
X110289160Y-110649931D01*
X110289160Y-110649931D02*
X110193922Y-110602312D01*
X110193922Y-110602312D02*
X110146303Y-110554692D01*
X110146303Y-110554692D02*
X110098684Y-110459454D01*
X110098684Y-110459454D02*
X110098684Y-110173740D01*
X110098684Y-110173740D02*
X110146303Y-110078502D01*
X110146303Y-110078502D02*
X110193922Y-110030883D01*
X110193922Y-110030883D02*
X110289160Y-109983264D01*
X110289160Y-109983264D02*
X110479636Y-109983264D01*
X110479636Y-109983264D02*
X110574874Y-110030883D01*
X111432017Y-110602312D02*
X111336779Y-110649931D01*
X111336779Y-110649931D02*
X111146303Y-110649931D01*
X111146303Y-110649931D02*
X111051065Y-110602312D01*
X111051065Y-110602312D02*
X111003446Y-110507073D01*
X111003446Y-110507073D02*
X111003446Y-110126121D01*
X111003446Y-110126121D02*
X111051065Y-110030883D01*
X111051065Y-110030883D02*
X111146303Y-109983264D01*
X111146303Y-109983264D02*
X111336779Y-109983264D01*
X111336779Y-109983264D02*
X111432017Y-110030883D01*
X111432017Y-110030883D02*
X111479636Y-110126121D01*
X111479636Y-110126121D02*
X111479636Y-110221359D01*
X111479636Y-110221359D02*
X111003446Y-110316597D01*
X111908208Y-110649931D02*
X111908208Y-109983264D01*
X111908208Y-110173740D02*
X111955827Y-110078502D01*
X111955827Y-110078502D02*
X112003446Y-110030883D01*
X112003446Y-110030883D02*
X112098684Y-109983264D01*
X112098684Y-109983264D02*
X112193922Y-109983264D01*
X113717732Y-110649931D02*
X113717732Y-110126121D01*
X113717732Y-110126121D02*
X113670113Y-110030883D01*
X113670113Y-110030883D02*
X113574875Y-109983264D01*
X113574875Y-109983264D02*
X113384399Y-109983264D01*
X113384399Y-109983264D02*
X113289161Y-110030883D01*
X113717732Y-110602312D02*
X113622494Y-110649931D01*
X113622494Y-110649931D02*
X113384399Y-110649931D01*
X113384399Y-110649931D02*
X113289161Y-110602312D01*
X113289161Y-110602312D02*
X113241542Y-110507073D01*
X113241542Y-110507073D02*
X113241542Y-110411835D01*
X113241542Y-110411835D02*
X113289161Y-110316597D01*
X113289161Y-110316597D02*
X113384399Y-110268978D01*
X113384399Y-110268978D02*
X113622494Y-110268978D01*
X113622494Y-110268978D02*
X113717732Y-110221359D01*
X114193923Y-109983264D02*
X114193923Y-110649931D01*
X114193923Y-110078502D02*
X114241542Y-110030883D01*
X114241542Y-110030883D02*
X114336780Y-109983264D01*
X114336780Y-109983264D02*
X114479637Y-109983264D01*
X114479637Y-109983264D02*
X114574875Y-110030883D01*
X114574875Y-110030883D02*
X114622494Y-110126121D01*
X114622494Y-110126121D02*
X114622494Y-110649931D01*
X115527256Y-110649931D02*
X115527256Y-109649931D01*
X115527256Y-110602312D02*
X115432018Y-110649931D01*
X115432018Y-110649931D02*
X115241542Y-110649931D01*
X115241542Y-110649931D02*
X115146304Y-110602312D01*
X115146304Y-110602312D02*
X115098685Y-110554692D01*
X115098685Y-110554692D02*
X115051066Y-110459454D01*
X115051066Y-110459454D02*
X115051066Y-110173740D01*
X115051066Y-110173740D02*
X115098685Y-110078502D01*
X115098685Y-110078502D02*
X115146304Y-110030883D01*
X115146304Y-110030883D02*
X115241542Y-109983264D01*
X115241542Y-109983264D02*
X115432018Y-109983264D01*
X115432018Y-109983264D02*
X115527256Y-110030883D01*
X116717733Y-110602312D02*
X116860590Y-110649931D01*
X116860590Y-110649931D02*
X117098685Y-110649931D01*
X117098685Y-110649931D02*
X117193923Y-110602312D01*
X117193923Y-110602312D02*
X117241542Y-110554692D01*
X117241542Y-110554692D02*
X117289161Y-110459454D01*
X117289161Y-110459454D02*
X117289161Y-110364216D01*
X117289161Y-110364216D02*
X117241542Y-110268978D01*
X117241542Y-110268978D02*
X117193923Y-110221359D01*
X117193923Y-110221359D02*
X117098685Y-110173740D01*
X117098685Y-110173740D02*
X116908209Y-110126121D01*
X116908209Y-110126121D02*
X116812971Y-110078502D01*
X116812971Y-110078502D02*
X116765352Y-110030883D01*
X116765352Y-110030883D02*
X116717733Y-109935645D01*
X116717733Y-109935645D02*
X116717733Y-109840407D01*
X116717733Y-109840407D02*
X116765352Y-109745169D01*
X116765352Y-109745169D02*
X116812971Y-109697550D01*
X116812971Y-109697550D02*
X116908209Y-109649931D01*
X116908209Y-109649931D02*
X117146304Y-109649931D01*
X117146304Y-109649931D02*
X117289161Y-109697550D01*
X118051066Y-110126121D02*
X118193923Y-110173740D01*
X118193923Y-110173740D02*
X118241542Y-110221359D01*
X118241542Y-110221359D02*
X118289161Y-110316597D01*
X118289161Y-110316597D02*
X118289161Y-110459454D01*
X118289161Y-110459454D02*
X118241542Y-110554692D01*
X118241542Y-110554692D02*
X118193923Y-110602312D01*
X118193923Y-110602312D02*
X118098685Y-110649931D01*
X118098685Y-110649931D02*
X117717733Y-110649931D01*
X117717733Y-110649931D02*
X117717733Y-109649931D01*
X117717733Y-109649931D02*
X118051066Y-109649931D01*
X118051066Y-109649931D02*
X118146304Y-109697550D01*
X118146304Y-109697550D02*
X118193923Y-109745169D01*
X118193923Y-109745169D02*
X118241542Y-109840407D01*
X118241542Y-109840407D02*
X118241542Y-109935645D01*
X118241542Y-109935645D02*
X118193923Y-110030883D01*
X118193923Y-110030883D02*
X118146304Y-110078502D01*
X118146304Y-110078502D02*
X118051066Y-110126121D01*
X118051066Y-110126121D02*
X117717733Y-110126121D01*
X119289161Y-110554692D02*
X119241542Y-110602312D01*
X119241542Y-110602312D02*
X119098685Y-110649931D01*
X119098685Y-110649931D02*
X119003447Y-110649931D01*
X119003447Y-110649931D02*
X118860590Y-110602312D01*
X118860590Y-110602312D02*
X118765352Y-110507073D01*
X118765352Y-110507073D02*
X118717733Y-110411835D01*
X118717733Y-110411835D02*
X118670114Y-110221359D01*
X118670114Y-110221359D02*
X118670114Y-110078502D01*
X118670114Y-110078502D02*
X118717733Y-109888026D01*
X118717733Y-109888026D02*
X118765352Y-109792788D01*
X118765352Y-109792788D02*
X118860590Y-109697550D01*
X118860590Y-109697550D02*
X119003447Y-109649931D01*
X119003447Y-109649931D02*
X119098685Y-109649931D01*
X119098685Y-109649931D02*
X119241542Y-109697550D01*
X119241542Y-109697550D02*
X119289161Y-109745169D01*
X107479636Y-112259875D02*
X107384398Y-112212256D01*
X107384398Y-112212256D02*
X107336779Y-112164636D01*
X107336779Y-112164636D02*
X107289160Y-112069398D01*
X107289160Y-112069398D02*
X107289160Y-111783684D01*
X107289160Y-111783684D02*
X107336779Y-111688446D01*
X107336779Y-111688446D02*
X107384398Y-111640827D01*
X107384398Y-111640827D02*
X107479636Y-111593208D01*
X107479636Y-111593208D02*
X107622493Y-111593208D01*
X107622493Y-111593208D02*
X107717731Y-111640827D01*
X107717731Y-111640827D02*
X107765350Y-111688446D01*
X107765350Y-111688446D02*
X107812969Y-111783684D01*
X107812969Y-111783684D02*
X107812969Y-112069398D01*
X107812969Y-112069398D02*
X107765350Y-112164636D01*
X107765350Y-112164636D02*
X107717731Y-112212256D01*
X107717731Y-112212256D02*
X107622493Y-112259875D01*
X107622493Y-112259875D02*
X107479636Y-112259875D01*
X108241541Y-111593208D02*
X108241541Y-112259875D01*
X108241541Y-111688446D02*
X108289160Y-111640827D01*
X108289160Y-111640827D02*
X108384398Y-111593208D01*
X108384398Y-111593208D02*
X108527255Y-111593208D01*
X108527255Y-111593208D02*
X108622493Y-111640827D01*
X108622493Y-111640827D02*
X108670112Y-111736065D01*
X108670112Y-111736065D02*
X108670112Y-112259875D01*
X110051065Y-112259875D02*
X109955827Y-112212256D01*
X109955827Y-112212256D02*
X109908208Y-112164636D01*
X109908208Y-112164636D02*
X109860589Y-112069398D01*
X109860589Y-112069398D02*
X109860589Y-111783684D01*
X109860589Y-111783684D02*
X109908208Y-111688446D01*
X109908208Y-111688446D02*
X109955827Y-111640827D01*
X109955827Y-111640827D02*
X110051065Y-111593208D01*
X110051065Y-111593208D02*
X110193922Y-111593208D01*
X110193922Y-111593208D02*
X110289160Y-111640827D01*
X110289160Y-111640827D02*
X110336779Y-111688446D01*
X110336779Y-111688446D02*
X110384398Y-111783684D01*
X110384398Y-111783684D02*
X110384398Y-112069398D01*
X110384398Y-112069398D02*
X110336779Y-112164636D01*
X110336779Y-112164636D02*
X110289160Y-112212256D01*
X110289160Y-112212256D02*
X110193922Y-112259875D01*
X110193922Y-112259875D02*
X110051065Y-112259875D01*
X110670113Y-111593208D02*
X111051065Y-111593208D01*
X110812970Y-111259875D02*
X110812970Y-112117017D01*
X110812970Y-112117017D02*
X110860589Y-112212256D01*
X110860589Y-112212256D02*
X110955827Y-112259875D01*
X110955827Y-112259875D02*
X111051065Y-112259875D01*
X111384399Y-112259875D02*
X111384399Y-111259875D01*
X111812970Y-112259875D02*
X111812970Y-111736065D01*
X111812970Y-111736065D02*
X111765351Y-111640827D01*
X111765351Y-111640827D02*
X111670113Y-111593208D01*
X111670113Y-111593208D02*
X111527256Y-111593208D01*
X111527256Y-111593208D02*
X111432018Y-111640827D01*
X111432018Y-111640827D02*
X111384399Y-111688446D01*
X112670113Y-112212256D02*
X112574875Y-112259875D01*
X112574875Y-112259875D02*
X112384399Y-112259875D01*
X112384399Y-112259875D02*
X112289161Y-112212256D01*
X112289161Y-112212256D02*
X112241542Y-112117017D01*
X112241542Y-112117017D02*
X112241542Y-111736065D01*
X112241542Y-111736065D02*
X112289161Y-111640827D01*
X112289161Y-111640827D02*
X112384399Y-111593208D01*
X112384399Y-111593208D02*
X112574875Y-111593208D01*
X112574875Y-111593208D02*
X112670113Y-111640827D01*
X112670113Y-111640827D02*
X112717732Y-111736065D01*
X112717732Y-111736065D02*
X112717732Y-111831303D01*
X112717732Y-111831303D02*
X112241542Y-111926541D01*
X113146304Y-112259875D02*
X113146304Y-111593208D01*
X113146304Y-111783684D02*
X113193923Y-111688446D01*
X113193923Y-111688446D02*
X113241542Y-111640827D01*
X113241542Y-111640827D02*
X113336780Y-111593208D01*
X113336780Y-111593208D02*
X113432018Y-111593208D01*
X107289160Y-113822200D02*
X107432017Y-113869819D01*
X107432017Y-113869819D02*
X107670112Y-113869819D01*
X107670112Y-113869819D02*
X107765350Y-113822200D01*
X107765350Y-113822200D02*
X107812969Y-113774580D01*
X107812969Y-113774580D02*
X107860588Y-113679342D01*
X107860588Y-113679342D02*
X107860588Y-113584104D01*
X107860588Y-113584104D02*
X107812969Y-113488866D01*
X107812969Y-113488866D02*
X107765350Y-113441247D01*
X107765350Y-113441247D02*
X107670112Y-113393628D01*
X107670112Y-113393628D02*
X107479636Y-113346009D01*
X107479636Y-113346009D02*
X107384398Y-113298390D01*
X107384398Y-113298390D02*
X107336779Y-113250771D01*
X107336779Y-113250771D02*
X107289160Y-113155533D01*
X107289160Y-113155533D02*
X107289160Y-113060295D01*
X107289160Y-113060295D02*
X107336779Y-112965057D01*
X107336779Y-112965057D02*
X107384398Y-112917438D01*
X107384398Y-112917438D02*
X107479636Y-112869819D01*
X107479636Y-112869819D02*
X107717731Y-112869819D01*
X107717731Y-112869819D02*
X107860588Y-112917438D01*
X108289160Y-113869819D02*
X108289160Y-113203152D01*
X108289160Y-112869819D02*
X108241541Y-112917438D01*
X108241541Y-112917438D02*
X108289160Y-112965057D01*
X108289160Y-112965057D02*
X108336779Y-112917438D01*
X108336779Y-112917438D02*
X108289160Y-112869819D01*
X108289160Y-112869819D02*
X108289160Y-112965057D01*
X109193921Y-113869819D02*
X109193921Y-112869819D01*
X109193921Y-113822200D02*
X109098683Y-113869819D01*
X109098683Y-113869819D02*
X108908207Y-113869819D01*
X108908207Y-113869819D02*
X108812969Y-113822200D01*
X108812969Y-113822200D02*
X108765350Y-113774580D01*
X108765350Y-113774580D02*
X108717731Y-113679342D01*
X108717731Y-113679342D02*
X108717731Y-113393628D01*
X108717731Y-113393628D02*
X108765350Y-113298390D01*
X108765350Y-113298390D02*
X108812969Y-113250771D01*
X108812969Y-113250771D02*
X108908207Y-113203152D01*
X108908207Y-113203152D02*
X109098683Y-113203152D01*
X109098683Y-113203152D02*
X109193921Y-113250771D01*
X110051064Y-113822200D02*
X109955826Y-113869819D01*
X109955826Y-113869819D02*
X109765350Y-113869819D01*
X109765350Y-113869819D02*
X109670112Y-113822200D01*
X109670112Y-113822200D02*
X109622493Y-113726961D01*
X109622493Y-113726961D02*
X109622493Y-113346009D01*
X109622493Y-113346009D02*
X109670112Y-113250771D01*
X109670112Y-113250771D02*
X109765350Y-113203152D01*
X109765350Y-113203152D02*
X109955826Y-113203152D01*
X109955826Y-113203152D02*
X110051064Y-113250771D01*
X110051064Y-113250771D02*
X110098683Y-113346009D01*
X110098683Y-113346009D02*
X110098683Y-113441247D01*
X110098683Y-113441247D02*
X109622493Y-113536485D01*
X110527255Y-113774580D02*
X110574874Y-113822200D01*
X110574874Y-113822200D02*
X110527255Y-113869819D01*
X110527255Y-113869819D02*
X110479636Y-113822200D01*
X110479636Y-113822200D02*
X110527255Y-113774580D01*
X110527255Y-113774580D02*
X110527255Y-113869819D01*
X110527255Y-113488866D02*
X110479636Y-112917438D01*
X110479636Y-112917438D02*
X110527255Y-112869819D01*
X110527255Y-112869819D02*
X110574874Y-112917438D01*
X110574874Y-112917438D02*
X110527255Y-113488866D01*
X110527255Y-113488866D02*
X110527255Y-112869819D01*
D11*
%TO.C,A1*%
X101700000Y-66800000D02*
X101220000Y-66800000D01*
X101700000Y-66800000D02*
X101700000Y-67220000D01*
X101700000Y-69340000D02*
X101700000Y-69760000D01*
X101700000Y-71880000D02*
X101700000Y-72300000D01*
X101700000Y-74420000D02*
X101700000Y-74840000D01*
X101700000Y-76960000D02*
X101700000Y-77380000D01*
X101700000Y-79500000D02*
X101700000Y-79920000D01*
X101700000Y-82040000D02*
X101700000Y-82460000D01*
X101700000Y-84580000D02*
X101700000Y-85000000D01*
X101700000Y-87120000D02*
X101700000Y-87540000D01*
X101700000Y-89660000D02*
X101700000Y-90080000D01*
X101700000Y-92200000D02*
X101700000Y-92620000D01*
X101700000Y-94740000D02*
X101700000Y-95160000D01*
X101700000Y-97280000D02*
X101700000Y-97700000D01*
X101700000Y-99820000D02*
X101700000Y-100240000D01*
X101700000Y-102360000D02*
X101700000Y-102780000D01*
X101700000Y-104900000D02*
X101700000Y-105320000D01*
X101700000Y-107440000D02*
X101700000Y-107860000D01*
X101700000Y-109980000D02*
X101700000Y-110400000D01*
X101700000Y-112520000D02*
X101700000Y-112940000D01*
X101730324Y-64680000D02*
X101220000Y-64680000D01*
X102040000Y-64680063D02*
X102040000Y-64323000D01*
X102040000Y-66800000D02*
X102040000Y-67220000D01*
X102040000Y-69340000D02*
X102040000Y-69760000D01*
X102040000Y-71880000D02*
X102040000Y-72300000D01*
X102040000Y-74420000D02*
X102040000Y-74840000D01*
X102040000Y-76960000D02*
X102040000Y-77380000D01*
X102040000Y-79500000D02*
X102040000Y-79920000D01*
X102040000Y-82040000D02*
X102040000Y-82460000D01*
X102040000Y-84580000D02*
X102040000Y-85000000D01*
X102040000Y-87120000D02*
X102040000Y-87540000D01*
X102040000Y-89660000D02*
X102040000Y-90080000D01*
X102040000Y-92200000D02*
X102040000Y-92620000D01*
X102040000Y-94740000D02*
X102040000Y-95160000D01*
X102040000Y-97280000D02*
X102040000Y-97700000D01*
X102040000Y-99820000D02*
X102040000Y-100240000D01*
X102040000Y-102360000D02*
X102040000Y-102780000D01*
X102040000Y-104900000D02*
X102040000Y-105320000D01*
X102040000Y-107440000D02*
X102040000Y-107860000D01*
X102040000Y-109980000D02*
X102040000Y-110400000D01*
X102040000Y-112520000D02*
X102040000Y-112940000D01*
X102040000Y-115059937D02*
X102040000Y-115417000D01*
X102310000Y-64260000D02*
X104800000Y-64260000D01*
X104800000Y-64260000D02*
X104800000Y-65173520D01*
X104800000Y-67566480D02*
X104800000Y-112173520D01*
X104800000Y-114566480D02*
X104800000Y-115480000D01*
X108410000Y-67564000D02*
X108410000Y-68780000D01*
X116210000Y-67564000D02*
X116210000Y-68780000D01*
X119820000Y-64260000D02*
X119820000Y-65173520D01*
X119820000Y-67566480D02*
X119820000Y-112173520D01*
X119820000Y-114566480D02*
X119820000Y-115480000D01*
X122310000Y-64260000D02*
X119820000Y-64260000D01*
X122580000Y-64680063D02*
X122580000Y-64323000D01*
X122580000Y-66800000D02*
X122580000Y-67220000D01*
X122580000Y-69340000D02*
X122580000Y-69760000D01*
X122580000Y-71880000D02*
X122580000Y-72300000D01*
X122580000Y-74420000D02*
X122580000Y-74840000D01*
X122580000Y-76960000D02*
X122580000Y-77380000D01*
X122580000Y-79500000D02*
X122580000Y-79920000D01*
X122580000Y-82040000D02*
X122580000Y-82460000D01*
X122580000Y-84580000D02*
X122580000Y-85000000D01*
X122580000Y-87120000D02*
X122580000Y-87540000D01*
X122580000Y-89660000D02*
X122580000Y-90080000D01*
X122580000Y-92200000D02*
X122580000Y-92620000D01*
X122580000Y-94740000D02*
X122580000Y-95160000D01*
X122580000Y-97280000D02*
X122580000Y-97700000D01*
X122580000Y-99820000D02*
X122580000Y-100240000D01*
X122580000Y-102360000D02*
X122580000Y-102780000D01*
X122580000Y-104900000D02*
X122580000Y-105320000D01*
X122580000Y-107440000D02*
X122580000Y-107860000D01*
X122580000Y-109980000D02*
X122580000Y-110400000D01*
X122580000Y-112520000D02*
X122580000Y-112940000D01*
X122580000Y-115059937D02*
X122580000Y-115417000D01*
X122920000Y-66800000D02*
X122920000Y-67220000D01*
X122920000Y-69340000D02*
X122920000Y-69760000D01*
X122920000Y-71880000D02*
X122920000Y-72300000D01*
X122920000Y-74420000D02*
X122920000Y-74840000D01*
X122920000Y-76960000D02*
X122920000Y-77380000D01*
X122920000Y-79500000D02*
X122920000Y-79920000D01*
X122920000Y-82040000D02*
X122920000Y-82460000D01*
X122920000Y-84580000D02*
X122920000Y-85000000D01*
X122920000Y-87120000D02*
X122920000Y-87540000D01*
X122920000Y-89660000D02*
X122920000Y-90080000D01*
X122920000Y-92200000D02*
X122920000Y-92620000D01*
X122920000Y-94740000D02*
X122920000Y-95160000D01*
X122920000Y-97280000D02*
X122920000Y-97700000D01*
X122920000Y-99820000D02*
X122920000Y-100240000D01*
X122920000Y-102360000D02*
X122920000Y-102780000D01*
X122920000Y-104900000D02*
X122920000Y-105320000D01*
X122920000Y-107440000D02*
X122920000Y-107860000D01*
X122920000Y-109980000D02*
X122920000Y-110400000D01*
X122920000Y-112520000D02*
X122920000Y-112940000D01*
X101730324Y-64680000D02*
G75*
G02*
X102310000Y-64260000I579692J-190051D01*
G01*
X122310000Y-64260000D02*
G75*
G02*
X122889676Y-64680063I0J-610000D01*
G01*
%TO.C,J2*%
X93080000Y-77540000D02*
X94460000Y-77540000D01*
X93080000Y-78920000D02*
X93080000Y-77540000D01*
X93080000Y-80190000D02*
X93080000Y-128560000D01*
X93080000Y-80190000D02*
X95730000Y-80190000D01*
X93080000Y-128560000D02*
X98380000Y-128560000D01*
X95730000Y-77540000D02*
X98380000Y-77540000D01*
X95730000Y-80190000D02*
X95730000Y-77540000D01*
X98380000Y-77540000D02*
X98380000Y-128560000D01*
%TD*%
M02*
