M48
; DRILL file {KiCad 9.0.3} date 2025-08-16T09:02:50+0200
; FORMAT={-:-/ absolute / metric / decimal}
; #@! TF.CreationDate,2025-08-16T09:02:50+02:00
; #@! TF.GenerationSoftware,Kicad,Pcbnew,9.0.3
; #@! TF.FileFunction,Plated,1,2,PTH
FMAT,2
METRIC
; #@! TA.AperFunction,Plated,PTH,ComponentDrill
T1C1.000
%
G90
G05
T1
X94.46Y-78.92
X94.46Y-81.46
X94.46Y-84.0
X94.46Y-86.54
X94.46Y-89.08
X94.46Y-91.62
X94.46Y-94.16
X94.46Y-96.7
X94.46Y-99.24
X94.46Y-101.78
X94.46Y-104.32
X94.46Y-106.86
X94.46Y-109.4
X94.46Y-111.94
X94.46Y-114.48
X94.46Y-117.02
X94.46Y-119.56
X94.46Y-122.1
X94.46Y-124.64
X94.46Y-127.18
X97.0Y-78.92
X97.0Y-81.46
X97.0Y-84.0
X97.0Y-86.54
X97.0Y-89.08
X97.0Y-91.62
X97.0Y-94.16
X97.0Y-96.7
X97.0Y-99.24
X97.0Y-101.78
X97.0Y-104.32
X97.0Y-106.86
X97.0Y-109.4
X97.0Y-111.94
X97.0Y-114.48
X97.0Y-117.02
X97.0Y-119.56
X97.0Y-122.1
X97.0Y-124.64
X97.0Y-127.18
X103.42Y-65.74
X103.42Y-68.28
X103.42Y-70.82
X103.42Y-73.36
X103.42Y-75.9
X103.42Y-78.44
X103.42Y-80.98
X103.42Y-83.52
X103.42Y-86.06
X103.42Y-88.6
X103.42Y-91.14
X103.42Y-93.68
X103.42Y-96.22
X103.42Y-98.76
X103.42Y-101.3
X103.42Y-103.84
X103.42Y-106.38
X103.42Y-108.92
X103.42Y-111.46
X103.42Y-114.0
X121.2Y-65.74
X121.2Y-68.28
X121.2Y-70.82
X121.2Y-73.36
X121.2Y-75.9
X121.2Y-78.44
X121.2Y-80.98
X121.2Y-83.52
X121.2Y-86.06
X121.2Y-88.6
X121.2Y-91.14
X121.2Y-93.68
X121.2Y-96.22
X121.2Y-98.76
X121.2Y-101.3
X121.2Y-103.84
X121.2Y-106.38
X121.2Y-108.92
X121.2Y-111.46
X121.2Y-114.0
M30
