%TF.GenerationSoftware,KiCad,Pcbnew,9.0.3*%
%TF.CreationDate,2025-08-16T09:01:18+02:00*%
%TF.ProjectId,PicoCalcPiZero,5069636f-4361-46c6-9350-695a65726f2e,rev?*%
%TF.SameCoordinates,Original*%
%TF.FileFunction,Soldermask,Bot*%
%TF.FilePolarity,Negative*%
%FSLAX46Y46*%
G04 Gerber Fmt 4.6, Leading zero omitted, Abs format (unit mm)*
G04 Created by KiCad (PCBNEW 9.0.3) date 2025-08-16 09:01:18*
%MOMM*%
%LPD*%
G01*
G04 APERTURE LIST*
G04 Aperture macros list*
%AMRoundRect*
0 Rectangle with rounded corners*
0 $1 Rounding radius*
0 $2 $3 $4 $5 $6 $7 $8 $9 X,Y pos of 4 corners*
0 Add a 4 corners polygon primitive as box body*
4,1,4,$2,$3,$4,$5,$6,$7,$8,$9,$2,$3,0*
0 Add four circle primitives for the rounded corners*
1,1,$1+$1,$2,$3*
1,1,$1+$1,$4,$5*
1,1,$1+$1,$6,$7*
1,1,$1+$1,$8,$9*
0 Add four rect primitives between the rounded corners*
20,1,$1+$1,$2,$3,$4,$5,0*
20,1,$1+$1,$4,$5,$6,$7,0*
20,1,$1+$1,$6,$7,$8,$9,0*
20,1,$1+$1,$8,$9,$2,$3,0*%
%AMFreePoly0*
4,1,37,0.603843,0.796157,0.639018,0.796157,0.711114,0.766294,0.766294,0.711114,0.796157,0.639018,0.796157,0.603843,0.800000,0.600000,0.800000,-0.600000,0.796157,-0.603843,0.796157,-0.639018,0.766294,-0.711114,0.711114,-0.766294,0.639018,-0.796157,0.603843,-0.796157,0.600000,-0.800000,0.000000,-0.800000,0.000000,-0.796148,-0.078414,-0.796148,-0.232228,-0.765552,-0.377117,-0.705537,
-0.507515,-0.618408,-0.618408,-0.507515,-0.705537,-0.377117,-0.765552,-0.232228,-0.796148,-0.078414,-0.796148,0.078414,-0.765552,0.232228,-0.705537,0.377117,-0.618408,0.507515,-0.507515,0.618408,-0.377117,0.705537,-0.232228,0.765552,-0.078414,0.796148,0.000000,0.796148,0.000000,0.800000,0.600000,0.800000,0.603843,0.796157,0.603843,0.796157,$1*%
%AMFreePoly1*
4,1,37,0.000000,0.796148,0.078414,0.796148,0.232228,0.765552,0.377117,0.705537,0.507515,0.618408,0.618408,0.507515,0.705537,0.377117,0.765552,0.232228,0.796148,0.078414,0.796148,-0.078414,0.765552,-0.232228,0.705537,-0.377117,0.618408,-0.507515,0.507515,-0.618408,0.377117,-0.705537,0.232228,-0.765552,0.078414,-0.796148,0.000000,-0.796148,0.000000,-0.800000,-0.600000,-0.800000,
-0.603843,-0.796157,-0.639018,-0.796157,-0.711114,-0.766294,-0.766294,-0.711114,-0.796157,-0.639018,-0.796157,-0.603843,-0.800000,-0.600000,-0.800000,0.600000,-0.796157,0.603843,-0.796157,0.639018,-0.766294,0.711114,-0.711114,0.766294,-0.639018,0.796157,-0.603843,0.796157,-0.600000,0.800000,0.000000,0.800000,0.000000,0.796148,0.000000,0.796148,$1*%
G04 Aperture macros list end*
%ADD10RoundRect,0.200000X-0.600000X-0.600000X0.600000X-0.600000X0.600000X0.600000X-0.600000X0.600000X0*%
%ADD11C,1.600000*%
%ADD12FreePoly0,0.000000*%
%ADD13FreePoly1,0.000000*%
%ADD14R,1.700000X1.700000*%
%ADD15C,1.700000*%
G04 APERTURE END LIST*
D10*
%TO.C,A1*%
X103420000Y-65740000D03*
D11*
X103420000Y-68280000D03*
D12*
X103420000Y-70820000D03*
D11*
X103420000Y-73360000D03*
X103420000Y-75900000D03*
X103420000Y-78440000D03*
X103420000Y-80980000D03*
D12*
X103420000Y-83520000D03*
D11*
X103420000Y-86060000D03*
X103420000Y-88600000D03*
X103420000Y-91140000D03*
X103420000Y-93680000D03*
D12*
X103420000Y-96220000D03*
D11*
X103420000Y-98760000D03*
X103420000Y-101300000D03*
X103420000Y-103840000D03*
X103420000Y-106380000D03*
D12*
X103420000Y-108920000D03*
D11*
X103420000Y-111460000D03*
X103420000Y-114000000D03*
X121200000Y-114000000D03*
X121200000Y-111460000D03*
D13*
X121200000Y-108920000D03*
D11*
X121200000Y-106380000D03*
X121200000Y-103840000D03*
X121200000Y-101300000D03*
X121200000Y-98760000D03*
D13*
X121200000Y-96220000D03*
D11*
X121200000Y-93680000D03*
X121200000Y-91140000D03*
X121200000Y-88600000D03*
X121200000Y-86060000D03*
D13*
X121200000Y-83520000D03*
D11*
X121200000Y-80980000D03*
X121200000Y-78440000D03*
X121200000Y-75900000D03*
X121200000Y-73360000D03*
D13*
X121200000Y-70820000D03*
D11*
X121200000Y-68280000D03*
X121200000Y-65740000D03*
%TD*%
D14*
%TO.C,J2*%
X94460000Y-78920000D03*
D15*
X97000000Y-78920000D03*
X94460000Y-81460000D03*
X97000000Y-81460000D03*
X94460000Y-84000000D03*
X97000000Y-84000000D03*
X94460000Y-86540000D03*
X97000000Y-86540000D03*
X94460000Y-89080000D03*
X97000000Y-89080000D03*
X94460000Y-91620000D03*
X97000000Y-91620000D03*
X94460000Y-94160000D03*
X97000000Y-94160000D03*
X94460000Y-96700000D03*
X97000000Y-96700000D03*
X94460000Y-99240000D03*
X97000000Y-99240000D03*
X94460000Y-101780000D03*
X97000000Y-101780000D03*
X94460000Y-104320000D03*
X97000000Y-104320000D03*
X94460000Y-106860000D03*
X97000000Y-106860000D03*
X94460000Y-109400000D03*
X97000000Y-109400000D03*
X94460000Y-111940000D03*
X97000000Y-111940000D03*
X94460000Y-114480000D03*
X97000000Y-114480000D03*
X94460000Y-117020000D03*
X97000000Y-117020000D03*
X94460000Y-119560000D03*
X97000000Y-119560000D03*
X94460000Y-122100000D03*
X97000000Y-122100000D03*
X94460000Y-124640000D03*
X97000000Y-124640000D03*
X94460000Y-127180000D03*
X97000000Y-127180000D03*
%TD*%
M02*
